<svg width="109" height="34" viewBox="0 0 109 34" fill="none" xmlns="http://www.w3.org/2000/svg">
<circle cx="12.2536" cy="17.0017" r="12.2536" fill="#1F5152"/>
<circle cx="12.3327" cy="17.1222" r="1.23455" fill="white"/>
<circle cx="8.41326" cy="12.914" r="1.23455" fill="white"/>
<circle cx="8.41326" cy="17.1039" r="1.23455" fill="white"/>
<circle cx="8.41326" cy="21.294" r="1.23455" fill="white"/>
<circle cx="16.3346" cy="12.914" r="1.23455" fill="white"/>
<circle cx="16.3346" cy="17.1039" r="1.23455" fill="white"/>
<circle cx="16.3346" cy="21.294" r="1.23455" fill="white"/>
<path d="M31.1273 22V8H33.0273V13.78H40.1473V8H42.0473V22H40.1473V15.58H33.0273V22H31.1273ZM48.875 22.2C47.8483 22.2 46.9717 21.9733 46.245 21.52C45.525 21.06 44.9717 20.4467 44.585 19.68C44.205 18.9067 44.015 18.0467 44.015 17.1C44.015 16.1533 44.205 15.2967 44.585 14.53C44.9717 13.7567 45.525 13.1433 46.245 12.69C46.9717 12.23 47.8483 12 48.875 12C49.895 12 50.7683 12.23 51.495 12.69C52.2217 13.1433 52.775 13.7567 53.155 14.53C53.5417 15.2967 53.735 16.1533 53.735 17.1C53.735 18.0467 53.5417 18.9067 53.155 19.68C52.775 20.4467 52.2217 21.06 51.495 21.52C50.7683 21.9733 49.895 22.2 48.875 22.2ZM48.875 20.6C49.8483 20.6 50.595 20.2933 51.115 19.68C51.635 19.06 51.895 18.2 51.895 17.1C51.895 16 51.635 15.1433 51.115 14.53C50.595 13.91 49.8483 13.6 48.875 13.6C47.9083 13.6 47.1617 13.91 46.635 14.53C46.115 15.1433 45.855 16 45.855 17.1C45.855 18.2 46.115 19.06 46.635 19.68C47.1617 20.2933 47.9083 20.6 48.875 20.6ZM58.1111 22.2C57.4778 22.2 56.9744 22.0867 56.6011 21.86C56.2344 21.6267 55.9711 21.33 55.8111 20.97C55.6511 20.61 55.5711 20.2333 55.5711 19.84V7H57.3711V18.8C57.3711 19.36 57.4078 19.78 57.4811 20.06C57.5544 20.34 57.7011 20.5267 57.9211 20.62C58.1478 20.7133 58.4911 20.76 58.9511 20.76L58.6911 22.2H58.1111ZM60.3177 22V12.2H62.1177V22H60.3177ZM60.3177 10V8H62.1177V10H60.3177ZM68.4359 22.2C67.6026 22.2 66.8493 21.9733 66.1759 21.52C65.5026 21.0667 64.9659 20.4567 64.5659 19.69C64.1726 18.9233 63.9759 18.0667 63.9759 17.12C63.9759 16.22 64.1559 15.38 64.5159 14.6C64.8826 13.82 65.3993 13.1933 66.0659 12.72C66.7326 12.24 67.5226 12 68.4359 12C69.0893 12 69.7193 12.1433 70.3259 12.43C70.9393 12.71 71.4359 13.18 71.8159 13.84L71.4359 14.1V7H73.2359V22H71.6359L71.2959 19.92L71.7559 20.24C71.4693 20.8867 71.0193 21.3767 70.4059 21.71C69.7926 22.0367 69.1359 22.2 68.4359 22.2ZM68.7559 20.6C69.2093 20.6 69.6559 20.4833 70.0959 20.25C70.5426 20.0167 70.9093 19.6467 71.1959 19.14C71.4893 18.6267 71.6359 17.9533 71.6359 17.12C71.6359 16.3467 71.4893 15.7 71.1959 15.18C70.9093 14.6533 70.5426 14.26 70.0959 14C69.6559 13.7333 69.2093 13.6 68.7559 13.6C68.1426 13.6 67.6159 13.7533 67.1759 14.06C66.7359 14.3667 66.3993 14.7867 66.1659 15.32C65.9326 15.8467 65.8159 16.4467 65.8159 17.12C65.8159 17.7533 65.9326 18.3333 66.1659 18.86C66.3993 19.3867 66.7359 19.81 67.1759 20.13C67.6159 20.4433 68.1426 20.6 68.7559 20.6ZM77.9297 22.2C77.323 22.2 76.793 22.0767 76.3397 21.83C75.8864 21.5833 75.533 21.2467 75.2797 20.82C75.033 20.3933 74.9097 19.9067 74.9097 19.36C74.9097 18.8067 75.0297 18.3333 75.2697 17.94C75.5164 17.54 75.843 17.21 76.2497 16.95C76.663 16.6833 77.123 16.4733 77.6297 16.32C78.1364 16.16 78.6597 16.0467 79.1997 15.98C79.7464 15.9067 80.2697 15.8667 80.7697 15.86C80.7697 14.9267 80.5864 14.3167 80.2197 14.03C79.853 13.7433 79.323 13.6 78.6297 13.6C78.263 13.6 77.8697 13.6567 77.4497 13.77C77.0364 13.8833 76.5697 14.12 76.0497 14.48L75.7897 13.02C76.183 12.72 76.673 12.4767 77.2597 12.29C77.8464 12.0967 78.463 12 79.1097 12C79.9364 12 80.603 12.1467 81.1097 12.44C81.6164 12.7267 81.9864 13.2133 82.2197 13.9C82.453 14.5867 82.5697 15.52 82.5697 16.7V18.7C82.5697 19.1667 82.5897 19.5533 82.6297 19.86C82.6764 20.16 82.7764 20.3867 82.9297 20.54C83.0897 20.6867 83.343 20.76 83.6897 20.76H83.8697L83.5897 22.2H83.4497C82.8697 22.2 82.4197 22.1433 82.0997 22.03C81.7864 21.9167 81.5464 21.7533 81.3797 21.54C81.213 21.3267 81.063 21.0667 80.9297 20.76C80.563 21.1867 80.1297 21.5333 79.6297 21.8C79.1297 22.0667 78.563 22.2 77.9297 22.2ZM78.2697 20.76C78.7497 20.76 79.213 20.64 79.6597 20.4C80.113 20.16 80.483 19.84 80.7697 19.44V17.1C79.8164 17.1333 79.043 17.2267 78.4497 17.38C77.863 17.5333 77.433 17.7633 77.1597 18.07C76.8864 18.3767 76.7497 18.7733 76.7497 19.26C76.7497 19.7867 76.8897 20.17 77.1697 20.41C77.4564 20.6433 77.823 20.76 78.2697 20.76ZM84.4791 22L90.5391 12.88L90.7591 13.78H84.7991V12.2H92.9591L86.8991 21.32L86.6791 20.42H92.8591V22H84.4791ZM99.1583 22.2C98.0049 22.2 97.0349 21.9633 96.2483 21.49C95.4616 21.0167 94.8649 20.39 94.4583 19.61C94.0583 18.8233 93.8583 17.96 93.8583 17.02C93.8583 16.1067 94.0449 15.27 94.4183 14.51C94.7983 13.75 95.3449 13.1433 96.0583 12.69C96.7783 12.23 97.6449 12 98.6583 12C99.4716 12 100.195 12.1633 100.828 12.49C101.468 12.81 101.968 13.28 102.328 13.9C102.695 14.5133 102.878 15.26 102.878 16.14C102.878 16.28 102.872 16.4333 102.858 16.6C102.852 16.76 102.832 16.9267 102.798 17.1H95.6983C95.7849 18.0067 96.0016 18.7133 96.3483 19.22C96.6949 19.7267 97.1316 20.0833 97.6583 20.29C98.1849 20.4967 98.7583 20.6 99.3783 20.6C99.8316 20.6 100.305 20.5533 100.798 20.46C101.292 20.3667 101.758 20.22 102.198 20.02L102.438 21.44C102.058 21.6067 101.595 21.7767 101.048 21.95C100.502 22.1167 99.8716 22.2 99.1583 22.2ZM95.8583 15.86H101.018C101.018 15.4 100.932 15 100.758 14.66C100.585 14.32 100.322 14.06 99.9683 13.88C99.6149 13.6933 99.1649 13.6 98.6183 13.6C97.8183 13.6 97.2016 13.8 96.7683 14.2C96.3416 14.5933 96.0383 15.1467 95.8583 15.86Z" fill="#1F5152"/>
</svg>
